<svg id="eGXPJZ3IonV1" xmlns="http://www.w3.org/2000/svg" xmlns:xlink="http://www.w3.org/1999/xlink" viewBox="0 0 200 200" shape-rendering="geometricPrecision" text-rendering="geometricPrecision"><style><![CDATA[#eGXPJZ3IonV7_to {animation: eGXPJZ3IonV7_to__to 5000ms linear infinite normal forwards}@keyframes eGXPJZ3IonV7_to__to { 0% {offset-distance: 0%} 20% {offset-distance: 13.864757%} 40% {offset-distance: 35.470006%} 60% {offset-distance: 62.137803%} 80% {offset-distance: 77.703401%} 100% {offset-distance: 100%}} #eGXPJZ3IonV7_ts {animation: eGXPJZ3IonV7_ts__ts 5000ms linear infinite normal forwards}@keyframes eGXPJZ3IonV7_ts__ts { 0% {transform: scale(0.5,0.5)} 20% {transform: scale(1,1)} 40% {transform: scale(1.5,1.5)} 80% {transform: scale(0.5,0.5)} 100% {transform: scale(0.5,0.5)}} #eGXPJZ3IonV7 {animation: eGXPJZ3IonV7_c_o 5000ms linear infinite normal forwards}@keyframes eGXPJZ3IonV7_c_o { 0% {opacity: 1} 78% {opacity: 1} 80% {opacity: 0} 98% {opacity: 0} 100% {opacity: 1}} #eGXPJZ3IonV8_to {animation: eGXPJZ3IonV8_to__to 5000ms linear infinite normal forwards}@keyframes eGXPJZ3IonV8_to__to { 0% {offset-distance: 0%} 20% {offset-distance: 9.461332%} 40% {offset-distance: 24.147417%} 60% {offset-distance: 54.065175%} 80% {offset-distance: 69.088004%} 100% {offset-distance: 100%}} #eGXPJZ3IonV8_ts {animation: eGXPJZ3IonV8_ts__ts 5000ms linear infinite normal forwards}@keyframes eGXPJZ3IonV8_ts__ts { 0% {transform: scale(0.5,0.5)} 20% {transform: scale(1,1)} 40% {transform: scale(1.5,1.5)} 78% {transform: scale(0.5,0.5)} 100% {transform: scale(0.5,0.5)}} #eGXPJZ3IonV8 {animation: eGXPJZ3IonV8_c_o 5000ms linear infinite normal forwards}@keyframes eGXPJZ3IonV8_c_o { 0% {opacity: 1} 78% {opacity: 1} 80% {opacity: 0} 98% {opacity: 0} 100% {opacity: 1}} #eGXPJZ3IonV9_to {animation: eGXPJZ3IonV9_to__to 5000ms linear infinite normal forwards}@keyframes eGXPJZ3IonV9_to__to { 0% {offset-distance: 0%} 20% {offset-distance: 18.429186%} 40% {offset-distance: 40.633915%} 60% {offset-distance: 62.270833%} 80% {offset-distance: 83.950991%} 100% {offset-distance: 100%}} #eGXPJZ3IonV10_to {animation: eGXPJZ3IonV10_to__to 5000ms linear infinite normal forwards}@keyframes eGXPJZ3IonV10_to__to { 0% {offset-distance: 0%} 20% {offset-distance: 15.734422%} 40% {offset-distance: 29.841039%} 60% {offset-distance: 54.994749%} 80% {offset-distance: 76.952242%} 100% {offset-distance: 100%}}]]></style><defs><linearGradient id="eGXPJZ3IonV2-fill" x1="0.050005" y1="0.682866" x2="0.914384" y2="0.230379" spreadMethod="pad" gradientUnits="objectBoundingBox" gradientTransform="translate(0 0)"><stop id="eGXPJZ3IonV2-fill-0" offset="0%" stop-color="#a39c86"/><stop id="eGXPJZ3IonV2-fill-1" offset="100%" stop-color="#505050"/></linearGradient></defs><path d="M423.5,275.9v.3c0,.7,0,1.4-.1,2.1-1.3,25.9-23.4,45.9-49.4,44.6-23.9-1.2-43-20.1-44.6-44-.1-1-.1-2-.1-3c0-9.7,3-19.2,8.6-27.2.5-.6.9-1.3,1.4-1.9.3-.4.7-.8,1-1.3c16.5-19.6,45.7-22.3,65.6-6.2.6.5,1.1.9,1.7,1.4.4.4.9.8,1.3,1.2c8.3,7.9,13.4,18.6,14.3,30c.2,1.3.3,2.6.3,4v0Z" transform="translate(-276.4-174.781715)" fill="url(#eGXPJZ3IonV2-fill)"/><path d="M339.5,246.8c0,0,0,0,0,0c.3.2,0,.6,0,1s.6.5,1,.6c.4,0,1,.4.8.8-1.1.4-2.2,0-3.2-.4-5.6,7.9-8.7,17.4-8.6,27.2c0,1,0,2,.1,3c.1.1.2.1.3.2.3.1.7.1,1,.3.2.1.4.4.6.5.7.4,1.6-.3,2.2.1.2.1.3.3.5.5.6.5,1.5.2,2.2.5.4.2.6.7.9,1.2.6,1.1,1.5,2.2,2.7,2.2.4,0,.8,0,1.2,0c.4.1.7.4.7.8-.1.7.2,1.4.1,2-.2,1.2-1.9,1.7-2,2.9c0,.3,0,.5,0,.8-.1.3-.3.6-.4.9-.2.6.3,1.2.7,1.6.5.4,1,.7,1.3,1.3s.1,1.3.2,1.9c.2,1.4,1.4,2.4,2.7,3.1.4.2.8.4,1,.8.3.5.3,1.1.4,1.6.3,1.4,1.4,2.5,1.4,3.8c0,1-.5,1.9-.8,2.8-.3,1-.4,2-.3,3c1.8,1.5,3.8,3,5.8,4.2.1-.2.2-.3.2-.5.1-.4-.1-.9-.5-1.1.3-.1.7-.3.9-.6.3-.3.3-.7.2-1c.6.1,1.2.1,1.6-.3.3-.3.3-.9.2-1.3-.2-.4-.3-.9-.3-1.3c1.3.1,2.6,0,3.9-.1-.2-.6-.6-1.2-1.2-1.5.6-.1,1.1-.8,1.3-1.4s.2-1.2,0-1.8c0-.1-.1-.3,0-.5s.3-.4.5-.5c1-.6,1.9-1.1,2.9-1.7.2-.1.3-.2.5-.3.3-.4.3-.9.1-1.3s-.4-.9-.5-1.3c-.2-1.4,1.3-2.4,1.8-3.7.2-.5.3-1.1.3-1.6c0-.6,0-1.3-.4-1.7s-1.1-.3-1.6-.6c-.4-.3-.6-.9-1-1.2-.4-.2-.9-.1-1.4-.2-.8-.2-1.3-1.1-2.2-1.2-.5-.1-1,.2-1.4-.1-.3-.2-.4-.7-.4-1.1-.2-1.3-1.3-2.3-2.6-2.6-.5-.1-1,0-1.4-.3s-.6-.8-.9-1.1c-.5-.6-1.4-.8-2.1-1-1.1-.2-2.1-.5-3.2-.7-.6-.1-1.3-.2-1.6.3-.1.2-.2.4-.2.6-.2.8-.9,1.3-1.7,1.3-.3-.5-.7-.8-1.2-.9-.3-.1-.7-.1-1-.2-.7-.3-1-1.1-.6-1.8c0,0,0,0,0-.1.4-.7.3-1.5-.3-2-.5-.5-1.3-.6-2-.6-.2-.4.1-.9.5-1.2.3-.3.8-.6.8-1c.1-.7-.8-1.2-1.5-1s-1.1.9-1.4,1.5c-.1.4-.3.8-.6,1.1-.2.3-.7.5-1.1.4-.6-.1-.8-.8-.9-1.4-.2-.8-.3-1.5-.3-2.3s.3-1.5.9-2.1c.9-.9,2.4-.8,3.6-.6-.3-.4-.2-.9.1-1.2s.8-.4,1.3-.3c.4.1.7.3,1,.6.4.4.5,1,.7,1.5.3.5.9.9,1.4.7.4-.2.5-.8.4-1.3s-.3-.9-.3-1.4c.1-.9,1-1.5,1.9-1.9s1.8-.9,2-1.8c0-.2,0-.4.1-.5.1-.2.2-.3.4-.4c2.5-1.6,5-3.3,7.8-4.2.1,0,.2,0,.3,0c.2-.1.1-.5-.1-.6s-.5-.2-.5-.5c0-.2.1-.3.1-.5c0-.4-.3-.7-.6-.7-.1,0-.2,0-.2,0-.2-.3.2-.6.6-.8c1.1-.3,2.2-.5,3.3-.5.1,0,.3,0,.4.1.2.2.2.4,0,.6s-.3.3-.5.5c-.4.4-.5.9-.4,1.4.6.3,1.2.6,1.9.5s1.2-.8.9-1.4c-.3-.5-1.1-.7-1.3-1.3-.2-.7.8-1.3.6-2-.1-.3-.4-.5-.6-.7-.6-.5-.7-1.4-.4-2.1-.8.1-1.5-.1-2.1-.7-.5-.5-.9-1.3-1.6-1.3-.6,0-1.2.8-1.8.5-.2-.1-.3-.2-.5-.1-.1.1-.2.2-.2.3-.2.7.1,1.6-.3,2.2-.4.7-1.5.8-2,1.4-.3.3-.4.8-.7,1.2s-.8.6-1.1.3c.3-.7.1-1.5-.4-1.9-.3-.2-.6-.3-.9-.5-.4-.2-.7-.4-1.1-.6-.2-.1-.3-.2-.4-.4s-.1-.4,0-.7c.3-.9,1.2-1.6,2.1-1.8.4-.1.9,0,1.2-.4.1-.2.2-.4.4-.5.1,0,.3,0,.4,0c.5.2,1.1.4,1.6.6.2.1.4.1.6.1s.3-.2.3-.4c-.1-.3-.5-.4-.4-.7c0-.1.1-.2.1-.2c1.2-1.2,2.8-1.9,4.5-1.8.2.3-.1.7-.4,1s-.5.8-.2,1c.1.1.3.1.4.1.4.1.8.2,1.1.3.5.2,1.1.5,1.6.8-.1-.3-.1-.7,0-1s.5-.5.8-.5c.3.1.5.5.8.6.4.1.6-.6.4-1s-.6-.7-.6-1.2c0-.3.1-.7-.1-.9-.1-.1-.2-.1-.3-.1-2-.4-4-.7-6-1.1-.4-.1-.9,0-.9.3c0,.2.2.4.1.6s-.4.2-.6.3c-.3.1-.5.5-.4.8s.2.6.4.9c-.4-.2-1-.2-1.4-.4-.1-.5-.2-.9-.3-1.3c0-.3-.3-.4-.5-.4c0,0-.1,0-.1,0-.5.1-1,.2-1.6.2-.1,0-.3.1-.4.1-.2.2,0,.6,0,.9s-.3.6-.6.7-.7.1-1,0c-.7-.1-1.4-.2-2.2-.3.6-.2,1.2-.6,1.6-1.1.3-.3.4-1,0-1.1-.1,0-.3,0-.4,0-1,0-1.8-.8-2.7-1.2-.3-.1-.6-.2-.9-.2l-.8,1.2Z" transform="translate(-276.4-174.781715)" fill="#f4f1ec"/><path d="M423.4,278.3c-.2.3-.6.5-1,.5-1-.1-1.4-1.5-2.4-1.7-.1,0-.2,0-.3,0-.1.1-.2.3-.2.4c0,.8-.1,1.7.2,2.4.5,1.1,1.7,2,1.4,3.2-1.4-.6-2.1-2.2-2.4-3.7s-.4-3-1-4.4c-.4.6-1.4.1-1.8-.5s-.6-1.2-1-1.8-.9-1.1-1.6-1.1-1.3.5-1.9.9c-.5.3-.9.8-1.2,1.3-.4.8-.3,1.7-.3,2.5c0,.9-.2,1.9-.8,2.6s-1.8.9-2.5.3c-.3-.4-.6-.8-.7-1.3-.8-2.2-1.4-4.4-1.9-6.7-.1.5-.6,1.2-1,.9-.1-.1-.2-.2-.2-.3-.8-1.4-2.3-2.2-3.8-2.7s-3.1-.7-4.6-1.3c-.8-.3-1.6-.7-2.4-1.2-.4.6-.4,1.3-.1,1.9s1.1.9,1.7.7c.3-.1.6-.3.9-.5.3-.1.8-.1.9.3.1.3-.1.7,0,1c.2.5.9.5,1.1,1c.2.4.1.8-.2,1s-.6.4-1,.6c-1.1.6-1.8,1.6-2.8,2.4-.9.8-2.3,1.4-3.4.9.3-1.4-1.3-2.3-1.6-3.7-.1-.4,0-.9-.2-1.3-.2-.6-.8-1.1-1.2-1.5-1.1-1.2-1.7-2.7-1.6-4.4c0-.6.1-1.1,0-1.7-.1-.5-.6-1.1-1.1-1-1.3.1-2.9.2-3.5-.9-.2-.4-.3-1,0-1.3.3-.2.6-.2.9-.2c1,.1,1.9.2,2.9.3.7.1,1.4.1,2-.2s.8-1.3.3-1.7c-.4-.3-1.1-.3-1.2-.8-.1-.4.3-.9.1-1.2-.2-.2-.6-.2-.8,0s-.4.4-.7.6c-.5.2-1,0-1.5-.1-.5-.2-1.2-.2-1.4.3-.3.5.2,1.2,0,1.7-.4.7-1.5.3-2,.9-.6.7.4,1.7.2,2.5-.5.2-1.1.2-1.5-.1-.5-.3-.7-.8-.6-1.4c0-.4.2-.8.1-1.1s-.4-.5-.7-.6c-.9-.5-1.9-1-2.8-1.5-.3.5.1,1.1.5,1.4.4.4.9.6,1.2,1.1.4.7.1,1.5-.5,1.9-.1.1-.2.1-.3,0s-.2-.1-.2-.2c-.5-1.3-1.2-2.5-2.4-3.2s-2.9-.5-3.6.6c-.2.3-.3.6-.5.8-.8,1.5-2.7,2.2-4.4,2.1-.2,0-.3,0-.5-.1-.3-.2-.3-.6-.2-.9.1-.5.1-.9.2-1.4c0-.3.1-.6.3-.8.3-.2.8-.1,1.2-.1.6,0,1.2-.4,1.3-1c.2-.6,0-1.2-.5-1.7-.2-.2-.4-.4-.3-.6.1-.1.2-.2.4-.2.7-.2,1.5-.3,2.2-.5s1.4-.8,1.6-1.5c.1-.2.1-.5.3-.6.1,0,.2-.1.3-.1.8-.1,1.4-.8,1.3-1.6.3-.2.8-.1,1.1.2s.6.6,1,.7c.7.2,1.5-.5,2.2-.5.3,0,.7.1,1,0s.5-.4.7-.6.7-.4.9-.1c-.1-.5-.1-.9-.2-1.4.8.2,1.6,0,2.2-.4-.8-.3-1.6-.5-2.4-.8-.1,0-.2-.1-.2-.1-.2-.2,0-.5.1-.7.3-.5.4-1.4-.2-1.6-.4-.2-.8,0-1.2.2-.6.3-1.2.7-1.8,1-.1.3.4.5.6.8.4.4.5,1,.1,1.4-.2.2-.5.3-.8.3.2.3.3.7.2,1.1-.4,0-.8.1-1.2.1-.1,0-.3,0-.4-.1s-.1-.3-.1-.5c-.1-.4-.5-.7-.9-.8-.4,0-.8,0-1.2.1-.2.1-.4.1-.5,0s-.2-.2-.2-.3c-.1-.4,0-.9.3-1.3.3-.3.6-.7,1-.9.8-.7,1.4-1.7,1.8-2.7.7-.3,1.3-.6,2-.9.5-.2,1.1-.4,1.6-.6.5-.1,1.1-.1,1.6-.1.7,0,1.5,0,2.2,0s1.3.1,1.9.3s1.1.8,1.2,1.4c0,.2,0,.3-.1.4-.1,0-.2.1-.3.1-.6,0-.9.2-1.5.2.4.4.8.8,1.4.9c1,.1,1.7-.9,2.2-1.8c0,.5.4.8.9.8.2,0,.5-.1.7-.3c2-1.1,4.2-1.6,6.4-1.7c0-.4.2-.7.5-.8.5-.1.9.3,1.1.7s.4.9.7,1.2s1,.3,1.2-.2c.1-.4-.3-.8-.7-1s-.8-.7-.5-1.1c1.9-.4,3.8-.8,5.7-.9.3,0,.7,0,1-.2.3-.1.5-.5.4-.8-.9.2-1.8-.1-2.3-.9c2-.2,4.1-.3,6,.1l1.7,1.4c-.3.3-.7.6-.5,1c.2.2.4.2.6.2.4,0,.8,0,1.2,0c8.3,7.9,13.4,18.6,14.3,30-.7,0-1.3.8-1.2,1.6.1.9.7,1.6,1.2,2.3.1.1.1.2.2.4l.1,2.6Z" transform="translate(-276.4-174.781715)" fill="#f4f1ec"/><path d="M361.6,267.2c1-1.2,2.7-2.2,3.9-2.2s2.7-.5,4.1.5s1.2-.5,2.4-1s2.4.7,2.9,1.7s1.7,1.7,2.9,1.4c1.2-.2,1.7-.7,3.4-1c1.7-.2,3.9-3.2,3.6-1.6s3.1,4,1.6,4.4-.5.1-.9,2.3c-.5,2.2.5,1.4,1,2.9.5,1.4,1.4,3.4,3.1,3.1c1.7-.2,2.7-.7,2.7,1.2s0,2.9-1,4.3-2.4,2.2-1.9,3.9-.5,2.9.2,4.6.7,2.9,1,4.8c.2,1.9-.5.5-1.2,2.4s-2.2,2.9-2.4,4.1.7,3.4-1.2,3.1-5.1.7-6.8-1.2-3.1-1-2.7-3.4c.5-2.4-1-3.1-1-5.3s-.5-3.5-.2-5.6c.2-1.9.2-2.4.2-4.3s1,.2-1-2.4c-1.9-2.7-1.4-1.7-3.1-1.7s-1.7-.7-3.9-1-6.5,1.4-7.7-.2c-1.2-1.7-1.7-1.9-1.9-3.1s-1-2.2-1.2-3.6.2-1.4,1-3.6c.7-2.2,1.2-2.7,1.9-3.1" transform="translate(-276.4-174.781715)" fill="#f4f1ec"/><path d="M396.1,294c-1,1.4-3.1,4.3-1.9,4.6c2.7.7,2.4-.2,3.1-1.4s1.7-1.7.7-2.9-1-1.2-1-1.2v0" transform="translate(-276.4-174.781715)" fill="#f4f1ec"/><g id="eGXPJZ3IonV7_to" style="offset-path:path('M126.128978,60.235571C142.136496,50.592489,165.820006,34.995573,176.75671,41.400786C188.43793,49.499094,170.101436,93.793501,147,118.168706Q97.974671,162.843081,53.097681,165.843081C24.941118,166.970719,43.508495,128.556982,56.097681,118.168706Q112.432201,71.131691,125.021387,60.743416');offset-rotate:0deg"><g id="eGXPJZ3IonV7_ts" transform="scale(0.5,0.5)"><ellipse id="eGXPJZ3IonV7" rx="3" ry="3" transform="translate(0,0)" fill="#fff"/></g></g><g id="eGXPJZ3IonV8_to" style="offset-path:path('M57.669878,75.846489C53.097681,75.846489,34.957005,68.77162,28.402267,75.846489C21.713016,85.640611,35.645957,97.622304,56.097681,108.318286C75.471391,118.318285,117.4088,134.517043,147,137.867664Q187.022497,141.218285,147,117.818085Q115.900001,95.240068,57.610488,75.714659');offset-rotate:0deg"><g id="eGXPJZ3IonV8_ts" transform="scale(0.5,0.5)"><ellipse id="eGXPJZ3IonV8" rx="2.5" ry="2.5" transform="translate(-0.850621,-0.850621)" fill="#fff" stroke-width="0"/></g></g><g id="eGXPJZ3IonV9_to" style="offset-path:path('M97.974671,44.694225C75.233503,44.694225,53.097681,57.743416,47.587663,79.065281C38.253088,115.186859,47.587663,131.583155,70.298842,148.17788C93.130296,161.159309,122.021387,158.633937,142.161244,141.218285C157.446113,124.019127,160.19112,87.892111,147.541239,68.565068C138.393388,56.406638,122.021387,44.712975,97.974671,44.712975');offset-rotate:0deg"><path d="M-2.809382,0c0-1.551579,1.257803-2.809382,2.809382-2.809382s2.809382,1.257803,2.809382,2.809382-1.257803,2.809382-2.809382,2.809382-2.809382-1.257803-2.809382-2.809382Z" transform="translate(0,0)" fill="#fff" stroke-width="0"/></g><g id="eGXPJZ3IonV10_to" style="offset-path:path('M61.020499,153.918608C50.397045,148.17788,33.98698,118.318286,33.98698,97.765908C35.766854,75.394592,43.76676,59.681123,60.09331,49.065272C100.000003,27.440371,131.935995,39.579802,152.584713,63.743416C169.789176,89.601067,162.219231,129.900584,147.488397,148.17788C120.259189,177.114535,76.371858,165.232062,60.961109,153.858356');offset-rotate:0deg"><ellipse rx="2.234092" ry="2.234092" transform="translate(0,0)" fill="#fff" stroke-width="0"/></g></svg>